<?xml version="1.0" encoding="UTF-8"?>
<!DOCTYPE svg PUBLIC "-//W3C//DTD SVG 1.1//EN" "http://www.w3.org/Graphics/SVG/1.1/DTD/svg11.dtd">
<!-- Creator: CorelDRAW X8 -->
<svg xmlns="http://www.w3.org/2000/svg" xml:space="preserve" width="195.9mm" height="205.998mm" version="1.1" style="shape-rendering:geometricPrecision; text-rendering:geometricPrecision; image-rendering:optimizeQuality; fill-rule:evenodd; clip-rule:evenodd"
viewBox="0 0 17518 18421"
 xmlns:xlink="http://www.w3.org/1999/xlink">
 <defs>
  <style type="text/css">
   <![CDATA[
    .fil0 {fill:black}
   ]]>
  </style>
 </defs>
 <g id="Слой_x0020_1">
  <metadata id="CorelCorpID_0Corel-Layer"/>
  <path class="fil0" d="M17397 6256c-91,-90 -220,-133 -347,-116l-4356 0 0 -2201c0,-2175 -1764,-3939 -3939,-3939 -2176,0 -3939,1764 -3939,3939l0 2201 -4347 0c-139,0 -278,0 -348,116 -93,90 -137,220 -116,348l1103 9500c243,1326 1387,2295 2734,2317l9825 0c1351,-33 2493,-1010 2734,-2340l1112 -9477c21,-128 -22,-258 -116,-348zm-11655 -2317c0,-1663 1349,-3012 3013,-3012 1663,0 3012,1349 3012,3012l0 2201 -6025 0 0 -2201z"/>
 </g>
</svg>
