<?xml version="1.0" encoding="UTF-8"?>
<!DOCTYPE svg PUBLIC "-//W3C//DTD SVG 1.1//EN" "http://www.w3.org/Graphics/SVG/1.1/DTD/svg11.dtd">
<!-- Creator: CorelDRAW X8 -->
<svg xmlns="http://www.w3.org/2000/svg" xml:space="preserve" width="159.933mm" height="77.47mm" version="1.1" style="shape-rendering:geometricPrecision; text-rendering:geometricPrecision; image-rendering:optimizeQuality; fill-rule:evenodd; clip-rule:evenodd"
viewBox="0 0 15993 7747"
 xmlns:xlink="http://www.w3.org/1999/xlink">
 <defs>
  <style type="text/css">
   <![CDATA[
    .fil0 {fill:#e7210b}
   ]]>
  </style>
 </defs>
 <g id="Слой_x0020_1">
  <metadata id="CorelCorpID_0Corel-Layer"/>
  <path class="fil0" d="M800 0l6625 0c0,316 256,572 572,572 315,0 571,-256 571,-572l6625 0c0,1447 800,1976 800,3874 0,1897 -800,2426 -800,3873l-6625 0c0,-316 -256,-571 -571,-571 -316,0 -572,255 -572,571l-6625 0c0,-1447 -800,-1976 -800,-3873 0,-1898 800,-2427 800,-3874zm974 6314l12446 0 0 233 -12446 0 0 -233zm0 -5114l12446 0 0 233 -12446 0 0 -233z"/>
 </g>
</svg>