<?xml version="1.0" encoding="UTF-8"?>
<!DOCTYPE svg PUBLIC "-//W3C//DTD SVG 1.1//EN" "http://www.w3.org/Graphics/SVG/1.1/DTD/svg11.dtd">
<!-- Creator: CorelDRAW X8 -->
<svg xmlns="http://www.w3.org/2000/svg" xml:space="preserve" width="207.565mm" height="44.1565mm" version="1.1" style="shape-rendering:geometricPrecision; text-rendering:geometricPrecision; image-rendering:optimizeQuality; fill-rule:evenodd; clip-rule:evenodd"
viewBox="0 0 23159 4927"
 xmlns:xlink="http://www.w3.org/1999/xlink">
 <defs>
  <style type="text/css">
   <![CDATA[
    .fil0 {fill:#434242;fill-rule:nonzero}
   ]]>
  </style>
 </defs>
 <g id="Слой_x0020_1">
  <metadata id="CorelCorpID_0Corel-Layer"/>
  <path class="fil0" d="M19 4133c4,30 10,61 17,91 5,31 13,61 22,91 8,29 18,57 29,84 11,28 23,54 38,80 13,25 29,50 45,74 18,24 36,47 57,69 19,23 42,44 65,64 23,20 48,40 75,58 28,18 56,36 88,51 30,17 63,32 99,46 33,14 70,27 110,38 39,10 82,19 125,25 44,8 90,14 141,17 49,3 101,6 156,6 44,0 88,-3 128,-6 42,-3 82,-8 120,-14 39,-6 77,-14 114,-24 35,-9 71,-20 106,-32 33,-13 67,-27 98,-41 30,-16 61,-32 90,-51 29,-16 56,-35 83,-55 25,-21 51,-43 74,-66 24,-22 46,-46 67,-71 20,-26 40,-52 58,-79 19,-29 36,-58 51,-89 16,-30 30,-61 43,-94 13,-34 24,-68 34,-103 9,-36 17,-71 24,-110 6,-37 12,-76 15,-115 4,-40 5,-80 5,-123 0,-51 -2,-101 -8,-150 -5,-49 -12,-98 -22,-146 -10,-48 -24,-96 -38,-143 -16,-47 -34,-92 -54,-138 -21,-46 -43,-94 -68,-143 -24,-48 -52,-97 -81,-145 -29,-49 -60,-98 -95,-147 -34,-49 -72,-98 -112,-147l-881 -1065c-9,-12 -19,-25 -29,-38 -10,-13 -19,-26 -28,-38 -11,-16 -19,-28 -27,-39l-21 -33c-8,-11 -15,-24 -23,-36 -7,-13 -14,-26 -21,-39 -7,-15 -14,-28 -19,-39 -7,-14 -13,-26 -17,-38 -6,-13 -11,-26 -17,-40 -4,-15 -10,-28 -13,-43 -5,-14 -9,-29 -12,-43 -4,-16 -7,-31 -10,-46 -4,-16 -6,-32 -8,-49 -2,-17 -5,-33 -6,-50 -1,-16 -2,-34 -3,-52 0,-21 -1,-38 -1,-55 0,-38 2,-74 8,-107 4,-35 12,-67 22,-97 11,-31 23,-61 40,-89 16,-28 33,-55 55,-78 22,-25 46,-46 74,-65 27,-19 57,-33 91,-46 31,-12 64,-20 100,-26 37,-6 75,-8 114,-8 50,0 96,4 140,15 43,10 85,27 121,48 38,22 73,48 103,81 30,31 57,68 79,110 21,39 39,81 56,129 15,47 28,98 38,153 10,53 18,111 22,172 6,61 8,126 8,195l0 48 479 0c25,-202 43,-384 14,-589l0 -2c-5,-29 -10,-58 -16,-87 -7,-29 -15,-59 -22,-87 -9,-29 -18,-57 -29,-84 -11,-27 -25,-54 -38,-80 -15,-26 -30,-50 -47,-75 -18,-25 -36,-49 -56,-72 -20,-22 -41,-45 -64,-65 -24,-21 -48,-41 -75,-59 -27,-19 -56,-37 -87,-53 -31,-17 -64,-33 -97,-47 -33,-13 -70,-27 -108,-38 -39,-10 -80,-19 -123,-27 -43,-7 -89,-13 -137,-16 -48,-4 -99,-6 -153,-6 -42,0 -84,1 -124,4 -40,4 -81,9 -119,16 -39,7 -75,15 -110,25 -36,9 -70,21 -104,33 -33,13 -65,27 -95,42 -32,16 -61,33 -87,51 -28,17 -55,36 -79,56 -25,22 -48,43 -71,66 -22,22 -43,47 -62,73 -20,24 -39,51 -56,79 -18,28 -33,55 -48,86 -14,30 -28,60 -39,92 -12,32 -23,66 -32,99 -9,35 -17,69 -22,105 -7,36 -12,71 -14,109 -3,38 -5,76 -5,115 0,50 2,98 6,146 5,47 11,94 21,139 9,47 21,92 34,136 13,45 29,88 47,132 18,45 38,89 59,133 22,43 46,87 71,132 27,45 55,88 84,131 30,43 62,85 97,127l789 938c20,24 38,46 54,67 17,21 33,42 47,63 15,21 29,42 43,61 13,21 25,40 35,56 11,17 23,35 33,54 11,18 21,37 31,55 9,19 18,37 27,54 7,18 15,36 23,54 7,17 13,34 20,51 6,18 11,36 17,54 4,19 10,36 13,53 5,18 8,35 10,53 4,17 6,35 8,54 2,18 4,37 6,56 1,19 2,38 3,59 1,21 1,41 1,59 0,42 -2,83 -8,120 -5,37 -14,73 -24,106 -11,35 -26,67 -44,96 -18,30 -38,57 -61,82 -23,23 -49,44 -78,63 -28,18 -59,32 -93,45 -32,12 -66,20 -102,26 -37,6 -75,8 -115,8 -26,0 -50,-1 -75,-3 -24,-3 -48,-7 -70,-12 -23,-6 -46,-13 -67,-20 -21,-9 -41,-19 -61,-31 -19,-11 -38,-23 -55,-36 -17,-14 -33,-28 -49,-45 -15,-15 -30,-33 -43,-51 -14,-19 -26,-39 -37,-60 -10,-19 -20,-40 -29,-63 -9,-22 -18,-45 -26,-69 -6,-23 -13,-49 -20,-75 -5,-25 -10,-52 -15,-80 -4,-28 -8,-56 -11,-85 -4,-28 -6,-59 -8,-90 -2,-30 -4,-62 -5,-96 -2,-33 -2,-67 -2,-98l0 -54 -486 0c-31,156 -27,423 -3,587l0 0zm21428 -4090l-596 0 0 4836 596 0 0 -2227 213 0 864 2227 635 0 -1019 -2421 912 -2415 -581 0 -811 2228 -213 0 0 -2228zm-3965 0l976 2809 0 2027 596 0 0 -2027 983 -2809 -579 0 -694 2064 -703 -2064 -579 0zm-1298 0l-595 0 0 4836 1628 0 0 -478 -1033 0 0 -4358zm-1629 0l-1689 0 0 4836 1719 0 0 -457 -1124 0 0 -1711 845 0 0 -500 -845 0 0 -1711 1094 0 0 -457 0 0zm-4012 0l-676 0 0 4836 596 0 0 -2157 154 0c25,0 50,0 72,-1 24,0 48,-1 74,-4 25,-1 51,-3 76,-5 28,-2 54,-5 80,-8 27,-3 52,-7 77,-11 25,-5 51,-10 77,-17 65,-15 126,-35 183,-60 60,-24 114,-52 164,-85l5 -2c320,-204 496,-557 544,-936 49,-380 -30,-784 -220,-1086l-4 -5c-18,-26 -37,-51 -57,-74 -21,-23 -41,-46 -64,-67l-7 -8 0 0c-19,-16 -38,-33 -58,-49 -24,-18 -47,-34 -72,-50 -25,-16 -51,-30 -75,-43 -26,-15 -52,-27 -77,-38 -26,-11 -52,-23 -77,-31 -27,-11 -54,-19 -81,-26 -26,-8 -53,-15 -81,-21 -27,-7 -53,-13 -79,-17l-2 0c-27,-6 -54,-9 -82,-13 -25,-4 -53,-6 -81,-8 -30,-2 -58,-5 -82,-6 -27,-2 -53,-3 -76,-4 -26,-1 -50,-2 -74,-2 -22,0 -48,-2 -77,-2l0 0zm-80 2161l0 -1702 26 -2c180,-8 324,5 441,42 118,35 207,94 274,175l9 11 9 11c16,20 30,41 44,65 13,22 25,46 37,72 62,142 91,307 92,473 0,171 -30,344 -88,491 -57,144 -147,248 -282,312 -132,64 -307,90 -536,78l-26 -1 0 -25zm-4018 -2161l975 2809 0 2027 595 0 0 -2027 983 -2809 -578 0 -693 2064 -703 -2064 -579 0zm-2585 0l-595 0 0 4836 595 0 0 -2168 1059 0 0 2168 596 0 0 -4836 -596 0 0 2168 -1059 0 0 -2168z"/>
 </g>
</svg>
