<?xml version="1.0" encoding="UTF-8"?>
<!DOCTYPE svg PUBLIC "-//W3C//DTD SVG 1.1//EN" "http://www.w3.org/Graphics/SVG/1.1/DTD/svg11.dtd">
<!-- Creator: CorelDRAW X8 -->
<svg xmlns="http://www.w3.org/2000/svg" xml:space="preserve" width="158.726mm" height="57.2488mm" version="1.1" style="shape-rendering:geometricPrecision; text-rendering:geometricPrecision; image-rendering:optimizeQuality; fill-rule:evenodd; clip-rule:evenodd"
viewBox="0 0 15873 5725"
 xmlns:xlink="http://www.w3.org/1999/xlink">
 <defs>
  <style type="text/css">
   <![CDATA[
    .fil1 {fill:#2E3131}
    .fil0 {fill:#2E3131;fill-rule:nonzero}
   ]]>
  </style>
 </defs>
 <g id="Слой_x0020_1">
  <metadata id="CorelCorpID_0Corel-Layer"/>
  <g id="_651662096">
   <path class="fil0" d="M14467 4715l52 0 0 925 -52 0 0 85 135 0 0 -1094 -135 0 0 84zm-13104 0l42 0 0 -84 -135 0 0 1094 135 0 0 -85 -50 0 0 -925 8 0z"/>
   <g>
    <path class="fil1" d="M3116 4775l0 785 557 0 0 -785 -101 0 0 685 -127 0 0 -685 -101 0 0 685 -128 0 0 -685 -100 0 0 0zm2166 785l0 -785 -110 0 -217 547 0 -547 -101 0 0 785 110 0 218 -547 0 547 100 0zm1273 0l0 -684 168 0 0 684 99 0 0 -785 -368 0 0 785 101 0 0 0zm1691 -100l-202 0 0 -242 145 0 0 -101 -145 0 0 -241 202 0 0 -101 -301 0 0 785 301 0 0 -100 0 0zm1169 -685l0 621c0,9 -2,17 -5,24 -4,8 -8,15 -14,22 -6,6 -13,10 -21,13 -6,3 -12,4 -18,5l0 100c21,0 39,-4 57,-11 19,-8 37,-21 52,-36 17,-17 29,-34 37,-54 7,-19 12,-40 12,-63l0 -520 148 0 0 684 100 0 0 -785 -348 0 0 0zm1947 785l0 -785 -109 0 -218 547 0 -547 -101 0 0 785 110 0 219 -547 0 547 99 0 0 0zm1424 -785l-141 347 0 -347 -101 0 0 785 101 0 0 -347 141 347 104 0 -158 -392 158 -393 -104 0z"/>
    <path class="fil1" d="M8108 4619c-49,0 -77,0 -84,0 -2,0 -2,-1 -1,-1 50,-68 81,-109 91,-123 6,-6 7,-6 14,-6 58,0 95,0 108,0 2,0 4,0 2,4 -74,74 -116,115 -126,124 -1,2 -2,2 -4,2z"/>
   </g>
  </g>
  <path class="fil0" d="M13 2833c3,20 7,42 11,62 4,21 10,42 16,62 5,20 12,39 20,58 7,19 16,37 26,55 9,17 19,34 31,51 12,16 24,32 39,47 13,15 28,30 44,44 16,13 33,27 51,39 19,13 39,25 61,36 20,11 43,22 68,31 23,10 48,18 75,26 27,7 56,13 86,17 30,6 62,10 96,12 34,2 70,4 107,4 31,0 60,-2 88,-4 29,-2 56,-5 82,-10 27,-4 53,-9 78,-16 25,-6 49,-14 73,-22 23,-9 46,-19 67,-29 21,-10 42,-21 62,-34 20,-11 38,-24 57,-38 17,-15 35,-29 51,-45 16,-15 31,-32 46,-49 13,-18 27,-35 39,-54 13,-20 25,-40 35,-61 11,-20 21,-42 29,-65 10,-23 17,-46 24,-70 6,-24 12,-49 16,-76 5,-25 9,-51 11,-78 2,-28 3,-55 3,-84 0,-35 -2,-70 -5,-103 -3,-34 -9,-68 -16,-100 -7,-33 -16,-66 -26,-98 -10,-32 -23,-64 -36,-95 -15,-31 -30,-64 -47,-98 -17,-33 -36,-66 -56,-99 -20,-34 -41,-67 -65,-101 -23,-34 -49,-67 -77,-101l-603 -730c-6,-8 -13,-17 -20,-26 -7,-8 -13,-18 -19,-26 -8,-11 -13,-19 -19,-27l-14 -22c-5,-8 -11,-17 -16,-25 -5,-9 -9,-18 -15,-27 -4,-10 -9,-19 -13,-27 -4,-9 -8,-17 -11,-26 -4,-8 -8,-17 -12,-27 -3,-10 -6,-19 -9,-29 -3,-10 -6,-20 -8,-30 -2,-11 -5,-21 -7,-31 -2,-11 -4,-22 -5,-34 -2,-11 -3,-23 -4,-34 -1,-11 -2,-23 -3,-36 0,-14 0,-26 0,-38 0,-26 1,-50 5,-73 3,-24 8,-46 15,-66 8,-22 16,-42 28,-62 11,-19 23,-37 37,-53 16,-17 32,-31 51,-44 19,-13 39,-23 62,-32 22,-8 45,-13 69,-18 25,-4 51,-5 78,-5 34,0 66,3 96,10 30,7 58,19 84,33 26,15 49,33 70,55 20,22 39,47 54,76 15,27 27,56 38,89 11,32 19,67 26,104 7,37 12,77 16,118 3,42 5,86 5,134l0 32 328 0c17,-138 29,-262 10,-403l0 -2c-4,-19 -7,-39 -11,-59 -5,-20 -10,-41 -15,-60 -7,-20 -13,-39 -20,-57 -8,-19 -17,-37 -26,-55 -10,-18 -21,-34 -32,-51 -13,-18 -25,-34 -39,-50 -13,-15 -28,-30 -44,-44 -16,-15 -33,-28 -51,-41 -18,-13 -38,-25 -60,-36 -21,-12 -43,-22 -66,-32 -23,-10 -48,-19 -74,-26 -27,-7 -55,-13 -84,-19 -30,-5 -61,-9 -94,-11 -33,-2 -68,-4 -105,-4 -29,0 -58,1 -85,3 -28,2 -55,6 -81,11 -27,4 -52,10 -76,17 -24,6 -48,14 -71,22 -23,10 -45,19 -66,30 -21,10 -41,22 -59,34 -19,12 -38,25 -55,39 -16,14 -32,29 -48,45 -15,15 -30,32 -43,50 -13,16 -26,35 -38,54 -12,19 -23,38 -33,59 -10,20 -19,41 -26,63 -9,22 -16,45 -22,68 -7,24 -12,47 -16,72 -4,24 -7,49 -9,75 -2,26 -4,52 -4,78 0,35 2,68 5,100 3,33 7,65 14,96 6,32 14,63 23,93 9,31 20,61 32,90 13,31 26,61 41,91 15,30 31,60 49,91 18,31 37,61 57,90 21,29 43,58 67,87l540 643c14,16 26,31 38,46 11,14 22,29 32,42 10,15 20,30 29,43 9,14 17,27 24,38 8,12 16,24 23,37 7,12 14,25 21,38 6,13 12,25 18,37 6,12 11,24 16,37 5,11 9,23 14,35 4,12 8,24 12,36 3,13 6,26 9,37 3,12 5,24 7,36 2,12 3,25 5,37 1,13 3,26 4,39 0,13 1,26 2,40 1,15 1,28 1,41 0,29 -2,56 -6,82 -3,25 -10,50 -16,73 -8,23 -18,46 -30,65 -12,21 -26,39 -42,56 -16,16 -34,31 -54,44 -19,12 -40,22 -63,30 -22,9 -46,14 -70,19 -26,3 -52,5 -79,5 -18,0 -34,-1 -51,-2 -17,-3 -33,-5 -48,-9 -16,-4 -32,-8 -46,-13 -15,-7 -28,-13 -42,-21 -13,-8 -26,-16 -38,-25 -12,-9 -23,-19 -33,-31 -11,-11 -21,-23 -30,-35 -9,-13 -18,-27 -25,-41 -7,-13 -14,-28 -20,-43 -6,-15 -12,-31 -18,-47 -4,-16 -9,-34 -13,-52 -4,-17 -7,-35 -11,-55 -2,-19 -5,-38 -8,-58 -2,-19 -4,-40 -5,-62 -2,-20 -2,-42 -3,-65 -2,-23 -2,-46 -2,-67l0 -38 -333 0c-21,107 -18,290 -2,403l0 0zm14686 -2803l-408 0 0 3314 408 0 0 -1527 146 0 593 1527 435 0 -699 -1659 625 -1655 -398 0 -556 1526 -146 0 0 -1526zm-2717 0l669 1925 0 1389 408 0 0 -1389 674 -1925 -397 0 -476 1414 -481 -1414 -397 0zm-889 0l-408 0 0 3314 1115 0 0 -328 -707 0 0 -2986zm-1117 0l-1158 0 0 3314 1178 0 0 -313 -770 0 0 -1173 579 0 0 -342 -579 0 0 -1173 750 0 0 -313 0 0zm-2750 0l-464 0 0 3314 409 0 0 -1478 106 0c17,0 34,0 49,-1 16,0 33,-1 51,-2 17,-1 35,-3 52,-4 19,-2 37,-3 55,-6 18,-2 36,-4 52,-7 18,-3 35,-7 53,-12 45,-10 86,-24 125,-41 42,-17 79,-36 113,-58l3 -2c220,-139 340,-382 373,-641 34,-261 -20,-537 -150,-744l-3 -4c-12,-18 -25,-35 -39,-51 -15,-16 -29,-31 -44,-46l-5 -5 0 0c-13,-11 -26,-23 -40,-33 -16,-13 -32,-24 -49,-35 -17,-11 -35,-20 -52,-30 -17,-10 -35,-18 -52,-26 -18,-7 -36,-15 -53,-21 -18,-7 -37,-13 -55,-18 -18,-5 -37,-10 -56,-14 -18,-5 -37,-8 -54,-12l-2 0c-18,-3 -36,-6 -55,-9 -18,-2 -37,-4 -56,-5 -21,-2 -40,-3 -57,-4 -18,-1 -36,-2 -52,-3 -17,-1 -34,-1 -50,-1 -15,0 -33,-1 -53,-1l0 0zm-55 1480l0 -1166 18 -1c124,-6 222,3 302,28 81,25 142,65 188,120l6 8 6 7c11,14 21,29 30,45 9,15 18,32 26,49 42,97 62,211 63,324 0,118 -21,236 -60,337 -39,99 -101,170 -194,214 -90,44 -210,61 -367,54l-18 -1 0 -18zm-2754 -1480l669 1925 0 1389 408 0 0 -1389 673 -1925 -396 0 -475 1414 -482 -1414 -397 0zm-1771 0l-408 0 0 3314 408 0 0 -1486 725 0 0 1486 409 0 0 -3314 -409 0 0 1486 -725 0 0 -1486z"/>
 </g>
</svg>
